<svg xmlns="http://www.w3.org/2000/svg" width="1600" height="900" viewBox="0 0 1600 900">
  <defs>
    <linearGradient id="g" x1="0" x2="0" y1="0" y2="1">
      <stop offset="0%" stop-color="#ff9966"/>
      <stop offset="50%" stop-color="#b06ab3"/>
      <stop offset="100%" stop-color="#2e1a47"/>
    </linearGradient>
  </defs>
  <rect width="100%" height="100%" fill="url(#g)"/>
  <g transform="translate(0,120)">
    <path d="M0,700 L150,480 L300,620 L450,420 L600,560 L750,380 L900,540 L1050,360 L1200,520 L1350,400 L1600,650 L1600,900 L0,900 Z"
          fill="#0e0b12" opacity="0.95"/>
    <path d="M0,700 L200,520 L400,680 L600,460 L800,640 L1000,420 L1200,600 L1400,480 L1600,700 L1600,900 L0,900 Z"
          fill="#19131b" opacity="0.85"/>
  </g>
  <g fill="#ffd27a" opacity="0.9">
    <circle cx="1300" cy="180" r="60"/>
  </g>
  <g opacity="0.6" fill="#ffffff">
    <circle cx="140" cy="100" r="2"/>
    <circle cx="320" cy="80" r="1.5"/>
    <circle cx="400" cy="140" r="2"/>
    <circle cx="520" cy="60" r="1.5"/>
    <circle cx="760" cy="90" r="2"/>
  </g>
</svg>